<svg width="1280" height="720" xmlns="http://www.w3.org/2000/svg" xmlns:xlink="http://www.w3.org/1999/xlink" overflow="hidden"><defs><filter id="fx0" x="-10%" y="-10%" width="120%" height="120%" filterUnits="userSpaceOnUse" primitiveUnits="userSpaceOnUse"><feComponentTransfer color-interpolation-filters="sRGB"><feFuncR type="discrete" tableValues="0 0"/><feFuncG type="discrete" tableValues="0 0"/><feFuncB type="discrete" tableValues="0 0"/><feFuncA type="linear" slope="0.458824" intercept="0"/></feComponentTransfer><feGaussianBlur stdDeviation="2.66667 2.66667"/></filter><filter id="fx1" x="-10%" y="-10%" width="120%" height="120%" filterUnits="userSpaceOnUse" primitiveUnits="userSpaceOnUse"><feComponentTransfer color-interpolation-filters="sRGB"><feFuncR type="discrete" tableValues="0 0"/><feFuncG type="discrete" tableValues="0 0"/><feFuncB type="discrete" tableValues="0 0"/><feFuncA type="linear" slope="0.4" intercept="0"/></feComponentTransfer><feGaussianBlur stdDeviation="6.66667 6.66667"/></filter><clipPath id="clip2"><rect x="0" y="0" width="1280" height="720"/></clipPath><radialGradient cx="6096000" cy="1628775" r="6309844" fx="6096000" gradientUnits="userSpaceOnUse" spreadMethod="pad" id="fill3" gradientTransform="matrix(0.000104987 0 0 0.000104987 0.500053 0.500053)"><stop offset="0" stop-color="#3864B3"/><stop offset="0.23" stop-color="#3864B3"/><stop offset="0.69" stop-color="#2F5597"/><stop offset="0.97" stop-color="#2C4F8C"/><stop offset="1" stop-color="#2C4F8C"/></radialGradient><clipPath id="clip4"><path d="M50.864 13.5001C34.6467 13.5001 21.5001 26.6467 21.5001 42.864L21.5001 672.136C21.5001 688.353 34.6467 701.5 50.864 701.5L1231.14 701.5C1247.35 701.5 1260.5 688.353 1260.5 672.136L1260.5 42.864C1260.5 26.6467 1247.35 13.5001 1231.14 13.5001ZM1.90735e-05 1.07288e-05 1280 1.07288e-05 1280 720 1.90735e-05 720Z" fill-rule="evenodd" clip-rule="evenodd"/></clipPath></defs><g clip-path="url(#clip2)"><rect x="0" y="0" width="1280" height="720" fill="#FFFFFF"/><path d="M178 110.334C178 95.7901 189.79 84 204.334 84L1231.67 84C1246.21 84 1258 95.7901 1258 110.334L1258 674.666C1258 689.21 1246.21 701 1231.67 701L204.334 701C189.79 701 178 689.21 178 674.666Z" fill="#F8F8FF" fill-rule="evenodd"/><rect x="0.500053" y="0.500053" width="1280" height="342" stroke="#172C51" stroke-width="1.33333" stroke-miterlimit="8" fill="url(#fill3)"/><g clip-path="url(#clip4)"><g filter="url(#fx0)" transform="translate(15 7)"><g><path d="M9.32848 38.6924C9.32848 22.4752 22.4752 9.32848 38.6924 9.32848L1218.96 9.32848C1235.18 9.32848 1248.33 22.4752 1248.33 38.6924L1248.33 667.965C1248.33 684.182 1235.18 697.328 1218.96 697.328L38.6924 697.328C22.4752 697.328 9.32848 684.182 9.32848 667.965Z" stroke="#172C51" stroke-miterlimit="8" fill="#FFFFFF" fill-rule="evenodd"/></g></g></g><path d="M21.5001 42.864C21.5001 26.6467 34.6467 13.5001 50.864 13.5001L1231.14 13.5001C1247.35 13.5001 1260.5 26.6467 1260.5 42.864L1260.5 672.136C1260.5 688.353 1247.35 701.5 1231.14 701.5L50.864 701.5C34.6467 701.5 21.5001 688.353 21.5001 672.136Z" stroke="#172C51" stroke-width="1.33333" stroke-miterlimit="8" fill="#FFFFFF" fill-rule="evenodd"/><path d="M21 41.9452C21 25.4069 34.4069 12 50.9452 12L1230.05 12C1246.59 12 1260 25.4069 1260 41.9452L1260 51.0548C1260 67.5931 1246.59 81 1230.05 81L50.9452 81C34.4069 81 21 67.5931 21 51.0548Z" fill="#203864" fill-rule="evenodd"/><rect x="195" y="82" width="1038" height="617" fill="#F8F8FF"/><rect x="21" y="60" width="1239" height="30" fill="#203864"/><g filter="url(#fx1)" transform="translate(198 164)"><g><path d="M20.8284 58.23C20.8284 37.5737 37.5736 20.8284 58.2299 20.8284L1006.43 20.8284C1027.08 20.8284 1043.83 37.5737 1043.83 58.23L1043.83 490.427C1043.83 511.083 1027.08 527.828 1006.43 527.828L58.2299 527.828C37.5736 527.828 20.8284 511.083 20.8284 490.427Z" fill="#FFFFFF" fill-rule="evenodd"/></g></g><path d="M216 219.402C216 198.745 232.745 182 253.401 182L1201.6 182C1222.25 182 1239 198.745 1239 219.402L1239 651.598C1239 672.255 1222.25 689 1201.6 689L253.401 689C232.745 689 216 672.255 216 651.598Z" fill="#FFFFFF" fill-rule="evenodd"/></g></svg>