<svg width="1280" height="720" xmlns="http://www.w3.org/2000/svg" xmlns:xlink="http://www.w3.org/1999/xlink" overflow="hidden"><defs><filter id="fx0" x="-10%" y="-10%" width="120%" height="120%" filterUnits="userSpaceOnUse" primitiveUnits="userSpaceOnUse"><feComponentTransfer color-interpolation-filters="sRGB"><feFuncR type="discrete" tableValues="0 0"/><feFuncG type="discrete" tableValues="0 0"/><feFuncB type="discrete" tableValues="0 0"/><feFuncA type="linear" slope="0.458824" intercept="0"/></feComponentTransfer><feGaussianBlur stdDeviation="2.66667 2.66667"/></filter><filter id="fx1" x="-10%" y="-10%" width="120%" height="120%" filterUnits="userSpaceOnUse" primitiveUnits="userSpaceOnUse"><feComponentTransfer color-interpolation-filters="sRGB"><feFuncR type="discrete" tableValues="0 0"/><feFuncG type="discrete" tableValues="0 0"/><feFuncB type="discrete" tableValues="0 0"/><feFuncA type="linear" slope="0.4" intercept="0"/></feComponentTransfer><feGaussianBlur stdDeviation="6.66667 6.66667"/></filter><filter id="fx2" x="-10%" y="-10%" width="120%" height="120%" filterUnits="userSpaceOnUse" primitiveUnits="userSpaceOnUse"><feComponentTransfer color-interpolation-filters="sRGB"><feFuncR type="discrete" tableValues="0 0"/><feFuncG type="discrete" tableValues="0 0"/><feFuncB type="discrete" tableValues="0 0"/><feFuncA type="linear" slope="0.4" intercept="0"/></feComponentTransfer><feGaussianBlur stdDeviation="6.66667 6.66667"/></filter><filter id="fx3" x="-10%" y="-10%" width="120%" height="120%" filterUnits="userSpaceOnUse" primitiveUnits="userSpaceOnUse"><feComponentTransfer color-interpolation-filters="sRGB"><feFuncR type="discrete" tableValues="0 0"/><feFuncG type="discrete" tableValues="0 0"/><feFuncB type="discrete" tableValues="0 0"/><feFuncA type="linear" slope="0.4" intercept="0"/></feComponentTransfer><feGaussianBlur stdDeviation="6.66667 6.66667"/></filter><filter id="fx4" x="-10%" y="-10%" width="120%" height="120%" filterUnits="userSpaceOnUse" primitiveUnits="userSpaceOnUse"><feComponentTransfer color-interpolation-filters="sRGB"><feFuncR type="discrete" tableValues="0 0"/><feFuncG type="discrete" tableValues="0 0"/><feFuncB type="discrete" tableValues="0 0"/><feFuncA type="linear" slope="0.4" intercept="0"/></feComponentTransfer><feGaussianBlur stdDeviation="6.66667 6.66667"/></filter><clipPath id="clip5"><rect x="0" y="0" width="1280" height="720"/></clipPath><radialGradient cx="6096000" cy="1628775" r="6309844" fx="6096000" gradientUnits="userSpaceOnUse" spreadMethod="pad" id="fill6" gradientTransform="matrix(0.000104987 0 0 0.000104987 0.500053 0.500053)"><stop offset="0" stop-color="#3864B3"/><stop offset="0.23" stop-color="#3864B3"/><stop offset="0.69" stop-color="#2F5597"/><stop offset="0.97" stop-color="#2C4F8C"/><stop offset="1" stop-color="#2C4F8C"/></radialGradient><clipPath id="clip7"><path d="M50.864 13.5001C34.6467 13.5001 21.5001 26.6467 21.5001 42.864L21.5001 672.136C21.5001 688.353 34.6467 701.5 50.864 701.5L1231.14 701.5C1247.35 701.5 1260.5 688.353 1260.5 672.136L1260.5 42.864C1260.5 26.6467 1247.35 13.5001 1231.14 13.5001ZM1.90735e-05 1.07288e-05 1280 1.07288e-05 1280 720 1.90735e-05 720Z" fill-rule="evenodd" clip-rule="evenodd"/></clipPath></defs><g clip-path="url(#clip5)"><rect x="0" y="0" width="1280" height="720" fill="#FFFFFF"/><path d="M178 110.334C178 95.7901 189.79 84 204.334 84L1231.67 84C1246.21 84 1258 95.7901 1258 110.334L1258 674.666C1258 689.21 1246.21 701 1231.67 701L204.334 701C189.79 701 178 689.21 178 674.666Z" fill="#F8F8FF" fill-rule="evenodd"/><rect x="0.500053" y="0.500053" width="1280" height="342" stroke="#172C51" stroke-width="1.33333" stroke-miterlimit="8" fill="url(#fill6)"/><g clip-path="url(#clip7)"><g filter="url(#fx0)" transform="translate(15 7)"><g><path d="M9.32848 38.6924C9.32848 22.4752 22.4752 9.32848 38.6924 9.32848L1218.96 9.32848C1235.18 9.32848 1248.33 22.4752 1248.33 38.6924L1248.33 667.965C1248.33 684.182 1235.18 697.328 1218.96 697.328L38.6924 697.328C22.4752 697.328 9.32848 684.182 9.32848 667.965Z" stroke="#172C51" stroke-miterlimit="8" fill="#FFFFFF" fill-rule="evenodd"/></g></g></g><path d="M21.5001 42.864C21.5001 26.6467 34.6467 13.5001 50.864 13.5001L1231.14 13.5001C1247.35 13.5001 1260.5 26.6467 1260.5 42.864L1260.5 672.136C1260.5 688.353 1247.35 701.5 1231.14 701.5L50.864 701.5C34.6467 701.5 21.5001 688.353 21.5001 672.136Z" stroke="#172C51" stroke-width="1.33333" stroke-miterlimit="8" fill="#FFFFFF" fill-rule="evenodd"/><path d="M21 41.9452C21 25.4069 34.4069 12 50.9452 12L1230.05 12C1246.59 12 1260 25.4069 1260 41.9452L1260 51.0548C1260 67.5931 1246.59 81 1230.05 81L50.9452 81C34.4069 81 21 67.5931 21 51.0548Z" fill="#203864" fill-rule="evenodd"/><rect x="195" y="82" width="1041" height="617" fill="#F8F8FF"/><rect x="21" y="60" width="1239" height="30" fill="#203864"/><g filter="url(#fx1)" transform="translate(831 90)"><g><path d="M20.8284 41.7792C20.8284 30.2084 30.2084 20.8284 41.7791 20.8284L397.878 20.8284C409.448 20.8284 418.828 30.2084 418.828 41.7792L418.828 283.878C418.828 295.448 409.448 304.828 397.878 304.828L41.7791 304.828C30.2084 304.828 20.8284 295.448 20.8284 283.878Z" fill="#FFFFFF" fill-rule="evenodd"/></g></g><path d="M849 128.951C849 117.38 858.38 108 869.951 108L1226.05 108C1237.62 108 1247 117.38 1247 128.951L1247 371.049C1247 382.62 1237.62 392 1226.05 392L869.951 392C858.38 392 849 382.62 849 371.049Z" fill="#FFFFFF" fill-rule="evenodd"/><g filter="url(#fx2)" transform="translate(191 155)"><g><path d="M20.8284 42.5903C20.8284 30.5715 30.5715 20.8284 42.5903 20.8284L628.067 20.8284C640.085 20.8284 649.828 30.5715 649.828 42.5903L649.828 294.067C649.828 306.085 640.085 315.828 628.067 315.828L42.5903 315.828C30.5715 315.828 20.8284 306.085 20.8284 294.067Z" fill="#FFFFFF" fill-rule="evenodd"/></g></g><path d="M209 194.762C209 182.743 218.743 173 230.762 173L816.238 173C828.257 173 838 182.743 838 194.762L838 446.238C838 458.257 828.257 468 816.238 468L230.762 468C218.743 468 209 458.257 209 446.238Z" fill="#FFFFFF" fill-rule="evenodd"/><g filter="url(#fx3)" transform="translate(195 473)"><g><path d="M20.8284 35.2874C20.8284 27.3019 27.3019 20.8284 35.2874 20.8284L631.369 20.8284C639.355 20.8284 645.828 27.3019 645.828 35.2874L645.828 202.369C645.828 210.355 639.355 216.828 631.369 216.828L35.2874 216.828C27.3019 216.828 20.8284 210.355 20.8284 202.369Z" fill="#FFFFFF" fill-rule="evenodd"/></g></g><path d="M213 505.459C213 497.474 219.473 491 227.459 491L823.541 491C831.526 491 838 497.474 838 505.459L838 672.541C838 680.526 831.526 687 823.541 687L227.459 687C219.473 687 213 680.526 213 672.541Z" fill="#FFFFFF" fill-rule="evenodd"/><g filter="url(#fx4)" transform="translate(831 384)"><g><path d="M20.8284 41.7052C20.8284 30.1753 30.1753 20.8284 41.7051 20.8284L397.952 20.8284C409.482 20.8284 418.828 30.1753 418.828 41.7052L418.828 282.952C418.828 294.482 409.482 303.828 397.952 303.828L41.7051 303.828C30.1753 303.828 20.8284 294.482 20.8284 282.952Z" fill="#FFFFFF" fill-rule="evenodd"/></g></g><path d="M849 422.877C849 411.347 858.347 402 869.877 402L1226.12 402C1237.65 402 1247 411.347 1247 422.877L1247 664.123C1247 675.653 1237.65 685 1226.12 685L869.877 685C858.347 685 849 675.653 849 664.123Z" fill="#FFFFFF" fill-rule="evenodd"/><path d="M209 109.131C209 106.85 210.85 105 213.131 105L833.869 105C836.15 105 838 106.85 838 109.131L838 156.869C838 159.15 836.15 161 833.869 161L213.131 161C210.85 161 209 159.15 209 156.869Z" fill="#1D3257" fill-rule="evenodd"/></g></svg>