<svg width="1280" height="720" xmlns="http://www.w3.org/2000/svg" xmlns:xlink="http://www.w3.org/1999/xlink" overflow="hidden"><defs><filter id="fx0" x="-10%" y="-10%" width="120%" height="120%" filterUnits="userSpaceOnUse" primitiveUnits="userSpaceOnUse"><feComponentTransfer color-interpolation-filters="sRGB"><feFuncR type="discrete" tableValues="0 0"/><feFuncG type="discrete" tableValues="0 0"/><feFuncB type="discrete" tableValues="0 0"/><feFuncA type="linear" slope="0.458824" intercept="0"/></feComponentTransfer><feGaussianBlur stdDeviation="2.66667 2.66667"/></filter><filter id="fx1" x="-10%" y="-10%" width="120%" height="120%" filterUnits="userSpaceOnUse" primitiveUnits="userSpaceOnUse"><feComponentTransfer color-interpolation-filters="sRGB"><feFuncR type="discrete" tableValues="0 0"/><feFuncG type="discrete" tableValues="0 0"/><feFuncB type="discrete" tableValues="0 0"/><feFuncA type="linear" slope="0.4" intercept="0"/></feComponentTransfer><feGaussianBlur stdDeviation="6.66667 6.66667"/></filter><filter id="fx2" x="-10%" y="-10%" width="120%" height="120%" filterUnits="userSpaceOnUse" primitiveUnits="userSpaceOnUse"><feComponentTransfer color-interpolation-filters="sRGB"><feFuncR type="discrete" tableValues="0 0"/><feFuncG type="discrete" tableValues="0 0"/><feFuncB type="discrete" tableValues="0 0"/><feFuncA type="linear" slope="0.4" intercept="0"/></feComponentTransfer><feGaussianBlur stdDeviation="6.66667 6.66667"/></filter><filter id="fx3" x="-10%" y="-10%" width="120%" height="120%" filterUnits="userSpaceOnUse" primitiveUnits="userSpaceOnUse"><feComponentTransfer color-interpolation-filters="sRGB"><feFuncR type="discrete" tableValues="0 0"/><feFuncG type="discrete" tableValues="0 0"/><feFuncB type="discrete" tableValues="0 0"/><feFuncA type="linear" slope="0.4" intercept="0"/></feComponentTransfer><feGaussianBlur stdDeviation="6.66667 6.66667"/></filter><filter id="fx4" x="-10%" y="-10%" width="120%" height="120%" filterUnits="userSpaceOnUse" primitiveUnits="userSpaceOnUse"><feComponentTransfer color-interpolation-filters="sRGB"><feFuncR type="discrete" tableValues="0 0"/><feFuncG type="discrete" tableValues="0 0"/><feFuncB type="discrete" tableValues="0 0"/><feFuncA type="linear" slope="0.4" intercept="0"/></feComponentTransfer><feGaussianBlur stdDeviation="6.66667 6.66667"/></filter><clipPath id="clip5"><rect x="0" y="0" width="1280" height="720"/></clipPath><radialGradient cx="6096000" cy="1628775" r="6309844" fx="6096000" gradientUnits="userSpaceOnUse" spreadMethod="pad" id="fill6" gradientTransform="matrix(0.000104987 0 0 0.000104987 0.500053 0.500053)"><stop offset="0" stop-color="#3864B3"/><stop offset="0.23" stop-color="#3864B3"/><stop offset="0.69" stop-color="#2F5597"/><stop offset="0.97" stop-color="#2C4F8C"/><stop offset="1" stop-color="#2C4F8C"/></radialGradient><clipPath id="clip7"><path d="M50.864 13.5001C34.6467 13.5001 21.5001 26.6467 21.5001 42.864L21.5001 672.136C21.5001 688.353 34.6467 701.5 50.864 701.5L1231.14 701.5C1247.35 701.5 1260.5 688.353 1260.5 672.136L1260.5 42.864C1260.5 26.6467 1247.35 13.5001 1231.14 13.5001ZM1.90735e-05 1.07288e-05 1280 1.07288e-05 1280 720 1.90735e-05 720Z" fill-rule="evenodd" clip-rule="evenodd"/></clipPath></defs><g clip-path="url(#clip5)"><rect x="0" y="0" width="1280" height="720" fill="#FFFFFF"/><path d="M178 110.334C178 95.7901 189.79 84 204.334 84L1231.67 84C1246.21 84 1258 95.7901 1258 110.334L1258 674.666C1258 689.21 1246.21 701 1231.67 701L204.334 701C189.79 701 178 689.21 178 674.666Z" fill="#F8F8FF" fill-rule="evenodd"/><rect x="0.500053" y="0.500053" width="1280" height="342" stroke="#172C51" stroke-width="1.33333" stroke-miterlimit="8" fill="url(#fill6)"/><g clip-path="url(#clip7)"><g filter="url(#fx0)" transform="translate(15 7)"><g><path d="M9.32848 38.6924C9.32848 22.4752 22.4752 9.32848 38.6924 9.32848L1218.96 9.32848C1235.18 9.32848 1248.33 22.4752 1248.33 38.6924L1248.33 667.965C1248.33 684.182 1235.18 697.328 1218.96 697.328L38.6924 697.328C22.4752 697.328 9.32848 684.182 9.32848 667.965Z" stroke="#172C51" stroke-miterlimit="8" fill="#FFFFFF" fill-rule="evenodd"/></g></g></g><path d="M21.5001 42.864C21.5001 26.6467 34.6467 13.5001 50.864 13.5001L1231.14 13.5001C1247.35 13.5001 1260.5 26.6467 1260.5 42.864L1260.5 672.136C1260.5 688.353 1247.35 701.5 1231.14 701.5L50.864 701.5C34.6467 701.5 21.5001 688.353 21.5001 672.136Z" stroke="#172C51" stroke-width="1.33333" stroke-miterlimit="8" fill="#FFFFFF" fill-rule="evenodd"/><path d="M21 41.9452C21 25.4069 34.4069 12 50.9452 12L1230.05 12C1246.59 12 1260 25.4069 1260 41.9452L1260 51.0548C1260 67.5931 1246.59 81 1230.05 81L50.9452 81C34.4069 81 21 67.5931 21 51.0548Z" fill="#203864" fill-rule="evenodd"/><rect x="195" y="82" width="1041" height="617" fill="#F8F8FF"/><rect x="21" y="60" width="1239" height="30" fill="#203864"/><g filter="url(#fx1)" transform="translate(1064 87)"><g><path d="M20.8284 32.7055C20.8284 26.146 26.1459 20.8284 32.7054 20.8284L169.951 20.8284C176.511 20.8284 181.828 26.146 181.828 32.7055L181.828 290.951C181.828 297.511 176.511 302.828 169.951 302.828L32.7054 302.828C26.1459 302.828 20.8284 297.511 20.8284 290.951Z" fill="#FFFFFF" fill-rule="evenodd"/></g></g><path d="M1082 116.877C1082 110.318 1087.32 105 1093.88 105L1231.12 105C1237.68 105 1243 110.318 1243 116.877L1243 375.123C1243 381.682 1237.68 387 1231.12 387L1093.88 387C1087.32 387 1082 381.682 1082 375.123Z" fill="#FFFFFF" fill-rule="evenodd"/><g filter="url(#fx2)" transform="translate(206 85)"><g><path d="M20.8284 41.6315C20.8284 30.1423 30.1423 20.8284 41.6315 20.8284L843.025 20.8284C854.515 20.8284 863.828 30.1423 863.828 41.6315L863.828 282.025C863.828 293.515 854.515 302.828 843.025 302.828L41.6315 302.828C30.1423 302.828 20.8284 293.515 20.8284 282.025Z" fill="#FFFFFF" fill-rule="evenodd"/></g></g><path d="M224 123.803C224 112.314 233.314 103 244.803 103L1046.2 103C1057.69 103 1067 112.314 1067 123.803L1067 364.197C1067 375.686 1057.69 385 1046.2 385L244.803 385C233.314 385 224 375.686 224 364.197Z" fill="#FFFFFF" fill-rule="evenodd"/><g filter="url(#fx3)" transform="translate(206 380)"><g><path d="M20.8284 41.2629C20.8284 29.9772 29.9772 20.8284 41.2629 20.8284L424.394 20.8284C435.68 20.8284 444.828 29.9772 444.828 41.2629L444.828 277.394C444.828 288.68 435.68 297.828 424.394 297.828L41.2629 297.828C29.9772 297.828 20.8284 288.68 20.8284 277.394Z" fill="#FFFFFF" fill-rule="evenodd"/></g></g><path d="M224 418.434C224 407.149 233.149 398 244.434 398L627.566 398C638.851 398 648 407.149 648 418.434L648 654.566C648 665.851 638.851 675 627.566 675L244.434 675C233.149 675 224 665.851 224 654.566Z" fill="#FFFFFF" fill-rule="evenodd"/><g filter="url(#fx4)" transform="translate(659 377)"><g><path d="M20.8284 41.3367C20.8284 30.0103 30.0103 20.8284 41.3367 20.8284L559.32 20.8284C570.647 20.8284 579.828 30.0103 579.828 41.3367L579.828 278.32C579.828 289.647 570.647 298.828 559.32 298.828L41.3367 298.828C30.0103 298.828 20.8284 289.647 20.8284 278.32Z" fill="#FFFFFF" fill-rule="evenodd"/></g></g><path d="M677 415.508C677 404.182 686.182 395 697.508 395L1215.49 395C1226.82 395 1236 404.182 1236 415.508L1236 652.492C1236 663.818 1226.82 673 1215.49 673L697.508 673C686.182 673 677 663.818 677 652.492Z" fill="#FFFFFF" fill-rule="evenodd"/></g></svg>